HIERARCHY
ROOT joint_Root
{
	OFFSET 0.0 0.0 0.0
	CHANNELS 6 Xposition Yposition Zposition Zrotation Xrotation Yrotation 
	JOINT Hips
	{
		OFFSET -0.726466 93.3139 -2.00062
		CHANNELS 6 Xposition Yposition Zposition Zrotation Xrotation Yrotation 
		JOINT Spine
		{
			OFFSET 15.7357 0.0 0.0
			CHANNELS 6 Xposition Yposition Zposition Zrotation Xrotation Yrotation 
			JOINT Chest
			{
				OFFSET 8.98455 -0.406207 0.0
				CHANNELS 6 Xposition Yposition Zposition Zrotation Xrotation Yrotation 
				JOINT Neck
				{
					OFFSET 16.3773 0.0 0.0
					CHANNELS 6 Xposition Yposition Zposition Zrotation Xrotation Yrotation 
					JOINT Head
					{
						OFFSET 6.45672 0.0 0.0
						CHANNELS 6 Xposition Yposition Zposition Zrotation Xrotation Yrotation 
						End Site
						{
							OFFSET 0.0 0.0 0.0
						}
					}
				}
				JOINT Shoulder_L
				{
					OFFSET 12.9942 -0.242716 4.98039
					CHANNELS 6 Xposition Yposition Zposition Zrotation Xrotation Yrotation 
					JOINT UpperArm_L
					{
						OFFSET 5.34809 0.0 0.0
						CHANNELS 6 Xposition Yposition Zposition Zrotation Xrotation Yrotation 
						JOINT LowerArm_L
						{
							OFFSET 24.3286 1.87007e-05 0.0
							CHANNELS 6 Xposition Yposition Zposition Zrotation Xrotation Yrotation 
							JOINT Hand_L
							{
								OFFSET 22.2916 0.0 0.0
								CHANNELS 6 Xposition Yposition Zposition Zrotation Xrotation Yrotation 
								End Site
								{
									OFFSET 0.0 0.0 0.0
								}
							}
						}
					}
				}
				JOINT Shoulder_R
				{
					OFFSET 12.9945 -0.242716 -4.98039
					CHANNELS 6 Xposition Yposition Zposition Zrotation Xrotation Yrotation 
					JOINT UpperArm_R
					{
						OFFSET -5.34813 0.0 0.0
						CHANNELS 6 Xposition Yposition Zposition Zrotation Xrotation Yrotation 
						JOINT LowerArm_R
						{
							OFFSET -24.3289 0.000322201 0.0
							CHANNELS 6 Xposition Yposition Zposition Zrotation Xrotation Yrotation 
							JOINT Hand_R
							{
								OFFSET -22.2915 -0.000108084 0.0
								CHANNELS 6 Xposition Yposition Zposition Zrotation Xrotation Yrotation 
								End Site
								{
									OFFSET 0.0 0.0 0.0
								}
							}
						}
					}
				}
			}
		}
		JOINT UpperLeg_L
		{
			OFFSET -2.19248 -6.46944 0.0
			CHANNELS 6 Xposition Yposition Zposition Zrotation Xrotation Yrotation 
			JOINT LowerLeg_L
			{
				OFFSET 39.0811 0.0 -1.23785e-05
				CHANNELS 6 Xposition Yposition Zposition Zrotation Xrotation Yrotation 
				JOINT Foot_L
				{
					OFFSET 40.9854 0.0 -1.26872e-05
					CHANNELS 6 Xposition Yposition Zposition Zrotation Xrotation Yrotation 
					JOINT Toes_L
					{
						OFFSET 11.7543 0.0 0.0
						CHANNELS 6 Xposition Yposition Zposition Zrotation Xrotation Yrotation 
						End Site
						{
							OFFSET 0.0 0.0 0.0
						}
					}
				}
			}
		}
		JOINT UpperLeg_R
		{
			OFFSET -2.19251 6.46944 0.0
			CHANNELS 6 Xposition Yposition Zposition Zrotation Xrotation Yrotation 
			JOINT LowerLeg_R
			{
				OFFSET -39.0811 -0.00228153 -0.0401928
				CHANNELS 6 Xposition Yposition Zposition Zrotation Xrotation Yrotation 
				JOINT Foot_R
				{
					OFFSET -40.9854 0.0 0.0
					CHANNELS 6 Xposition Yposition Zposition Zrotation Xrotation Yrotation 
					JOINT Toes_R
					{
						OFFSET -11.7543 0.0 0.0
						CHANNELS 6 Xposition Yposition Zposition Zrotation Xrotation Yrotation 
						End Site
						{
							OFFSET 0.0 0.0 0.0
						}
					}
				}
			}
		}
	}
}
MOTION
Frames:	7
Frame Time:	0.0333333
0.000000 0.000000 0.000000 0.000000 0.000000 -0.000000 0.173102 92.866800 -1.300080 88.262000 -9.627830 3.289020 15.735700 0.000005 -0.000001 98.452300 86.705200 -98.842300 8.984550 -0.406207 -0.000000 -1.244470 0.999042 -0.768782 16.377300 -0.000001 -0.000001 5.062270 -1.735900 5.133740 6.456720 -0.000001 -0.000000 10.266000 -0.882382 -4.312840 12.994200 -0.242716 4.980390 -90.290100 0.896529 -72.067300 5.348090 -0.000007 -0.000001 -69.139200 38.100100 -9.744440 24.328600 0.000019 0.000005 3.296600 8.537880 -21.204900 22.291600 -0.000001 0.000005 3.816710 5.486430 -5.996560 12.994500 -0.242716 -4.980390 88.689400 4.280780 -72.960400 -5.348130 -0.000001 -0.000004 -69.644500 -18.593900 -75.485700 -24.328900 0.000322 -0.000009 17.598600 -4.004220 -102.416000 -22.291500 -0.000108 -0.000004 19.961200 5.226640 2.042110 -2.192480 -6.469440 -0.000000 -175.820000 -11.500300 -0.654131 39.081100 -0.000007 -0.000012 -0.076413 0.231110 18.295800 40.985400 -0.000006 -0.000013 -0.953835 -0.524132 -64.043100 11.754300 -0.000000 0.000003 -0.000000 -0.000005 -16.577700 -2.192510 6.469440 -0.000001 178.923000 6.517610 -179.182000 -39.081100 -0.002282 -0.040193 -0.041487 0.172513 14.563300 -40.985400 0.000008 0.000006 1.050390 10.214000 -62.343500 -11.754300 -0.000006 -0.000006 -0.003615 -0.047375 -18.500000
0.000000 0.000000 0.000000 0.000000 0.000000 -0.000000 0.198712 92.876000 -1.336260 88.281700 -9.509590 3.283100 15.735700 0.000005 -0.000001 98.289500 86.680800 -98.657800 8.984550 -0.406207 -0.000000 -1.193810 0.985667 -0.726024 16.377300 -0.000001 -0.000001 5.030520 -1.727770 5.134390 6.456720 -0.000001 -0.000000 10.250100 -0.879894 -4.381060 12.994200 -0.242716 4.980390 -90.290900 0.898667 -72.060500 5.348090 -0.000007 -0.000001 -69.013700 38.171600 -9.870890 24.328600 0.000019 0.000005 3.204930 8.271420 -21.266900 22.291600 -0.000001 0.000005 3.966710 5.487930 -6.054370 12.994500 -0.242716 -4.980390 88.697300 4.251580 -72.947700 -5.348130 -0.000001 -0.000004 -69.485700 -18.640200 -75.582500 -24.328900 0.000322 -0.000009 17.510500 -3.896860 -102.157000 -22.291500 -0.000108 -0.000004 19.833900 5.226120 2.055450 -2.192480 -6.469440 -0.000000 -175.879000 -11.351800 -0.678522 39.081100 -0.000007 -0.000012 -0.075262 0.228439 18.235000 40.985400 -0.000006 -0.000013 -0.935257 -0.559608 -63.982300 11.754300 -0.000000 0.000003 -0.000000 -0.000000 -16.577500 -2.192510 6.469440 -0.000001 178.904000 6.580410 -179.201000 -39.081100 -0.002282 -0.040193 -0.040407 0.168559 14.546500 -40.985400 0.000008 0.000006 1.131180 10.132700 -62.331800 -11.754300 -0.000006 -0.000006 -0.003712 -0.048413 -18.542300
0.000000 0.000000 0.000000 0.000000 0.000000 -0.000000 0.220199 92.881400 -1.362460 88.293400 -9.396010 3.309340 15.735700 0.000005 -0.000001 98.442800 86.646200 -98.791600 8.984550 -0.406207 -0.000000 -1.128010 1.011680 -0.687387 16.377300 -0.000001 -0.000001 5.078090 -1.722930 5.180090 6.456720 -0.000001 -0.000000 10.265200 -0.859542 -4.432800 12.994200 -0.242716 4.980390 -90.306900 0.948972 -72.076300 5.348090 -0.000007 -0.000001 -68.894800 38.077800 -9.965600 24.328600 0.000019 0.000005 3.265020 8.383140 -21.369700 22.291600 -0.000001 0.000005 3.892160 5.486410 -5.995730 12.994500 -0.242716 -4.980390 88.689200 4.263080 -72.891300 -5.348130 -0.000001 -0.000004 -69.110200 -18.677100 -75.381400 -24.328900 0.000322 -0.000009 17.543300 -3.844500 -101.975000 -22.291500 -0.000108 -0.000004 19.842500 5.224610 2.094550 -2.192480 -6.469440 -0.000000 -175.893000 -11.351400 -0.676151 39.081100 -0.000007 -0.000012 -0.075165 0.228500 18.208600 40.985400 -0.000006 -0.000013 -0.900464 -0.447384 -63.939800 11.754300 -0.000000 0.000003 -0.000000 -0.000001 -16.577500 -2.192510 6.469440 -0.000001 178.893000 6.612270 -179.171000 -39.081100 -0.002282 -0.040193 -0.038952 0.163256 14.520600 -40.985400 0.000008 0.000006 1.146530 10.043400 -62.315100 -11.754300 -0.000006 -0.000006 -0.003786 -0.049198 -18.574200
0.000000 0.000000 0.000000 0.000000 0.000000 -0.000000 0.237482 92.885200 -1.392140 88.317500 -9.211710 3.283260 15.735700 0.000005 -0.000001 98.270100 86.626000 -98.609300 8.984550 -0.406207 -0.000000 -1.085260 0.996614 -0.668553 16.377300 -0.000001 -0.000001 5.070930 -1.764980 5.240960 6.456720 -0.000001 -0.000000 10.366200 -0.895472 -4.429600 12.994200 -0.242716 4.980390 -90.329500 1.017900 -72.064800 5.348090 -0.000007 -0.000001 -68.710700 38.079500 -10.140100 24.328600 0.000019 0.000005 3.297680 8.456150 -21.396200 22.291600 -0.000001 0.000005 3.932240 5.485850 -5.973870 12.994500 -0.242716 -4.980390 88.652300 4.362250 -72.812900 -5.348130 -0.000001 -0.000004 -68.338700 -18.679900 -74.730600 -24.328900 0.000322 -0.000009 17.465100 -3.820730 -101.958000 -22.291500 -0.000108 -0.000004 19.835300 5.224280 2.102860 -2.192480 -6.469440 -0.000000 -175.953000 -11.194200 -0.757578 39.081100 -0.000007 -0.000012 -0.073986 0.225050 18.198600 40.985400 -0.000006 -0.000013 -0.880149 -0.434848 -63.894800 11.754300 -0.000000 0.000003 -0.000000 -0.000003 -16.577600 -2.192510 6.469440 -0.000001 178.859000 6.720870 -179.198000 -39.081100 -0.002282 -0.040193 -0.038728 0.162632 14.500000 -40.985400 0.000008 0.000006 1.090700 9.999440 -62.286500 -11.754300 -0.000006 -0.000006 -0.003874 -0.050124 -18.611900
0.000000 0.000000 0.000000 0.000000 0.000000 -0.000000 0.236928 92.888800 -1.414260 88.345000 -8.998400 3.256700 15.735700 0.000005 -0.000001 98.086900 86.607800 -98.419900 8.984550 -0.406207 -0.000000 -1.046100 0.979811 -0.656893 16.377300 -0.000001 -0.000001 5.099820 -1.825170 5.254340 6.456720 -0.000001 -0.000000 10.306500 -0.959296 -4.358690 12.994200 -0.242716 4.980390 -90.348400 1.074950 -72.043100 5.348090 -0.000007 -0.000001 -68.665700 37.937300 -10.194000 24.328600 0.000019 0.000005 3.295420 8.420290 -21.465100 22.291600 -0.000001 0.000005 3.925820 5.485880 -5.975070 12.994500 -0.242716 -4.980390 88.626100 4.442860 -72.797300 -5.348130 -0.000001 -0.000004 -67.158600 -18.695400 -73.324600 -24.328900 0.000322 -0.000009 16.732000 -3.751980 -102.281000 -22.291500 -0.000108 -0.000004 19.792500 5.228740 1.988000 -2.192480 -6.469440 -0.000000 -175.976000 -11.192500 -0.817078 39.081100 -0.000007 -0.000012 -0.073880 0.225055 18.173600 40.985400 -0.000006 -0.000013 -0.840622 -0.229136 -63.848900 11.754300 -0.000000 0.000003 -0.000000 -0.000002 -16.577500 -2.192510 6.469440 -0.000001 178.830000 6.846050 -179.211000 -39.081100 -0.002282 -0.040193 -0.039386 0.165486 14.474000 -40.985400 0.000008 0.000006 1.033780 9.916070 -62.265900 -11.754300 -0.000006 -0.000006 -0.003798 -0.049319 -18.579200
0.000000 0.000000 0.000000 0.000000 0.000000 -0.000000 0.243813 92.888400 -1.426870 88.348500 -8.799760 3.227560 15.735700 0.000005 -0.000001 97.818600 86.581800 -98.142800 8.984550 -0.406207 -0.000000 -0.990442 0.954570 -0.639994 16.377300 -0.000001 -0.000001 5.008460 -1.910680 5.250000 6.456720 -0.000001 -0.000000 10.276300 -1.033670 -4.316310 12.994200 -0.242716 4.980390 -90.365200 1.123770 -71.994100 5.348090 -0.000007 -0.000001 -68.535500 38.026600 -10.324800 24.328600 0.000019 0.000005 3.290770 8.401740 -21.480200 22.291600 -0.000001 0.000005 3.919080 5.485650 -5.965970 12.994500 -0.242716 -4.980390 88.562600 4.635210 -72.750400 -5.348130 -0.000001 -0.000004 -65.370900 -18.443300 -71.140200 -24.328900 0.000322 -0.000009 16.259500 -3.784570 -102.752000 -22.291500 -0.000108 -0.000004 19.493000 5.225170 2.080000 -2.192480 -6.469440 -0.000000 -176.003000 -11.038400 -0.916351 39.081100 -0.000007 -0.000012 -0.073186 0.222432 18.212600 40.985400 -0.000006 -0.000013 -0.821237 -0.171641 -63.833100 11.754300 -0.000000 0.000003 -0.000000 -0.000002 -16.577500 -2.192510 6.469440 -0.000001 178.840000 6.930450 -179.257000 -39.081100 -0.002282 -0.040193 -0.039169 0.164132 14.517200 -40.985400 0.000008 0.000006 1.119920 9.779500 -62.307100 -11.754300 -0.000006 -0.000006 -0.004009 -0.051529 -18.669200
0.000000 0.000000 0.000000 0.000000 0.000000 -0.000000 0.242677 92.896400 -1.435000 88.404400 -8.585040 3.219070 15.735700 0.000005 -0.000001 97.578600 86.554100 -97.909700 8.984550 -0.406207 -0.000000 -0.931601 0.933880 -0.654253 16.377300 -0.000001 -0.000001 4.902160 -1.964870 5.177880 6.456720 -0.000001 -0.000000 10.121300 -1.077660 -4.258760 12.994200 -0.242716 4.980390 -90.382900 1.175180 -71.953500 5.348090 -0.000007 -0.000001 -68.503600 38.084600 -10.361800 24.328600 0.000019 0.000005 3.207610 8.198310 -21.454600 22.291600 -0.000001 0.000005 3.944010 5.487830 -6.050810 12.994500 -0.242716 -4.980390 88.481800 4.882060 -72.702000 -5.348130 -0.000001 -0.000004 -63.014000 -17.876400 -68.019700 -24.328900 0.000322 -0.000009 15.723000 -3.827910 -103.341000 -22.291500 -0.000108 -0.000004 18.951700 5.229050 1.979820 -2.192480 -6.469440 -0.000000 -176.075000 -10.891300 -0.906919 39.081100 -0.000007 -0.000012 -0.072270 0.221070 18.102900 40.985400 -0.000006 -0.000013 -0.811385 -0.142702 -63.763400 11.754300 -0.000000 0.000003 -0.000000 -0.000001 -16.577500 -2.192510 6.469440 -0.000001 178.797000 7.019410 -179.248000 -39.081100 -0.002282 -0.040193 -0.038778 0.162810 14.501100 -40.985400 0.000008 0.000006 1.160040 9.646080 -62.322600 -11.754300 -0.000006 -0.000006 -0.003935 -0.050761 -18.637900
